<?xml version="1.0" encoding="iso-8859-1"?>
<!-- Generator: Adobe Illustrator 20.1.0, SVG Export Plug-In . SVG Version: 6.00 Build 0)  -->
<svg version="1.1" id="Layer_1" xmlns="http://www.w3.org/2000/svg" xmlns:xlink="http://www.w3.org/1999/xlink" x="0px" y="0px"
	 viewBox="0 0 40 40" style="enable-background:new 0 0 40 40;" xml:space="preserve">
<g>
	<g>
		<path style="fill:#5E9C76;" d="M33,15c2.206,0,4,1.794,4,4v5c0,2.206-1.794,4-4,4h-1V15H33 M33,14h-2v15h2c2.761,0,5-2.239,5-5v-5
			C38,16.239,35.761,14,33,14L33,14z"/>
	</g>
</g>
<g>
	<path style="fill:#BAE0BD;" d="M12,38.5c-3.032,0-5.5-2.467-5.5-5.5V9.5h25V33c0,3.033-2.468,5.5-5.5,5.5H12z"/>
	<g>
		<path style="fill:#5E9C76;" d="M31,10v23c0,2.757-2.243,5-5,5H12c-2.757,0-5-2.243-5-5V10H31 M32,9H6v24c0,3.314,2.686,6,6,6h14
			c3.314,0,6-2.686,6-6V9L32,9z"/>
	</g>
</g>
<g>
	<line style="fill:none;stroke:#F78F8F;stroke-miterlimit:10;" x1="12.5" y1="8" x2="12.5" y2="1"/>
</g>
<g>
	<line style="fill:none;stroke:#F78F8F;stroke-miterlimit:10;" x1="16.5" y1="8" x2="16.5" y2="3"/>
</g>
<g>
	<line style="fill:none;stroke:#FFFFFF;stroke-miterlimit:10;" x1="16.5" y1="21" x2="16.5" y2="10"/>
</g>
<g>
	<line style="fill:none;stroke:#F78F8F;stroke-miterlimit:10;" x1="20.5" y1="8" x2="20.5" y2="1"/>
</g>
<g>
	<line style="fill:none;stroke:#F78F8F;stroke-miterlimit:10;" x1="24.5" y1="8" x2="24.5" y2="3"/>
</g>
<g>
	<rect x="13.5" y="21.5" style="fill:#FFEEA3;" width="6" height="7"/>
	<g>
		<path style="fill:#BA9B48;" d="M19,22v6h-5v-6H19 M20,21h-7v8h7V21L20,21z"/>
	</g>
</g>
</svg>
